PathFileType	4	(X/Y/Z)	40_2_30_p1_0-620_filt_butterworth.trc
DataRate	CameraRate	NumFrames	NumMarkers	Units	OrigDataRate	OrigDataStartFrame	OrigNumFrames
59.0	59.0	5	27	m	59.0	77	620
Frame#	Time	RHip			RKnee			RAnkle			RBigToe			RSmallToe			RHeel			LHip			LKnee			LAnkle			LBigToe			LSmallToe			LHeel			Neck			Head			Nose			RShoulder			RElbow			RWrist			RThumb			RIndex			RPinky			LShoulder			LElbow			LWrist			LThumb			LIndex			LPinky			
		X1	Y1	Z1	X2	Y2	Z2	X3	Y3	Z3	X4	Y4	Z4	X5	Y5	Z5	X6	Y6	Z6	X7	Y7	Z7	X8	Y8	Z8	X9	Y9	Z9	X10	Y10	Z10	X11	Y11	Z11	X12	Y12	Z12	X13	Y13	Z13	X14	Y14	Z14	X15	Y15	Z15	X16	Y16	Z16	X17	Y17	Z17	X18	Y18	Z18	X19	Y19	Z19	X20	Y20	Z20	X21	Y21	Z21	X22	Y22	Z22	X23	Y23	Z23	X24	Y24	Z24	X25	Y25	Z25	X26	Y26	Z26	X27	Y27	Z27	
77	1.305084745762712	0.31321921606152264	0.7752551760568898	0.7365575022026825	0.31359054965416827	0.3143844107204282	0.8014402182136912	0.3129603640824034	-0.08136945701625783	0.8348841018049565	0.30557707226622816	-0.1266512991483807	0.7155146910076752	0.36885227435421086	-0.11133752084028214	0.7098540533875193	0.2755842403031577	-0.17062280585767173	0.9385754047396643	0.13924967411281294	0.7844362164400145	0.7393701978888948	0.10480801000266694	0.3330066360082181	0.8208267074939177	0.10012388284451738	-0.08430136568672651	0.8563330182133589	0.13625633052931752	-0.08975367466519873	0.6708836649871993	0.07892907382696666	-0.1137923567098426	0.7195952169177733	0.09325529383723503	-0.16902738772017284	0.9190585556922827	0.2521820120744841	1.3213954407638122	0.7195651540926968	0.2626593943871659	1.5473437621475505	0.7201183530882502	0.27808296597773063	1.432780928545734	0.5883332305467626	0.37696685988306344	1.2282902012965038	0.7508036097869464	0.37672664542427003	0.9359177529856925	0.724363025731933	0.2926073839730172	0.7382650502864105	0.5993522733150469	0.21647739893129095	0.6497740789080924	0.5572411331806665	0.2246545911199409	0.6324537746050354	0.5839120131329786	0.24193512130731515	0.6312141140565324	0.6120868744125278	0.08861568643632395	1.2346020831696627	0.725737974556774	0.1028222454223301	0.9815844866435527	0.6767040755908605	0.18407372961409835	0.7550986895706299	0.551015365025663	0.241164318486023	0.663565139887194	0.5635412236796337	0.23156322369385496	0.6494277408840562	0.554217970220648	0.2165134113511149	0.6482393649486531	0.5505449008905209	
78	1.3220338983050848	0.3132216267235946	0.7752632248250442	0.7365871495095095	0.31335520353181356	0.3138370685687718	0.8022346665329969	0.31329076659634103	-0.08135253191147114	0.8351160730329426	0.3053217525246279	-0.12572408032970345	0.7155400092635941	0.36906245625704254	-0.11127127729425654	0.7098356595930252	0.2755283835795749	-0.17046116900007635	0.9384583360637199	0.13920923959788617	0.7846532244733795	0.7394110962854579	0.10480676281716401	0.33300597261686077	0.8208387911469172	0.10016283191738815	-0.08421783945460978	0.8564014567764863	0.13689585470968732	-0.09140354813033419	0.6734436094732014	0.07905086462522141	-0.11385485909724384	0.7193627796392381	0.0932270670125833	-0.1689060872332079	0.9189972948565165	0.2522089237451591	1.3210791320940989	0.7195413407458954	0.2626646506683798	1.5472388992862327	0.7200979769366918	0.2780964430537145	1.432709114009222	0.5883857980632112	0.3768607925865429	1.2282227134374126	0.750507688468345	0.3767836687872828	0.9353716184244506	0.7242659440208793	0.2926213430917617	0.7382633315301612	0.5993662146283151	0.21646295947506214	0.6501939935843363	0.5573460887504671	0.2245046537067361	0.6327843985388492	0.584643487457228	0.24182331583859706	0.6319062993762049	0.6121292631394005	0.08948789855492545	1.2348804268103517	0.7239970307999598	0.10294859077489704	0.9822448243623364	0.67653928694231	0.18417422981880943	0.7550864443303086	0.5510793309770782	0.24088846069285136	0.6644343676340396	0.5616009500045095	0.23262342165137445	0.6511899570875139	0.55281222514721	0.21674234745792315	0.6481976046939429	0.5520127973053133	
79	1.3389830508474576	0.31321966198987494	0.7752681309169533	0.7366082068855253	0.31305283581062554	0.3133309486511412	0.8033049299904647	0.31357715570374617	-0.08135176212887735	0.8353449446716175	0.3048840643326528	-0.1242457381372221	0.7150107448527302	0.36920814767638205	-0.1111977367395072	0.7098060538910029	0.27549543797346654	-0.17044584986626232	0.93845037906835	0.13917237905733937	0.7848235875976142	0.7394390282548774	0.10480404886627931	0.3330068870719176	0.820848766225407	0.10020342337010124	-0.08412893534617362	0.8564739960384778	0.13778074350815572	-0.0929266947084282	0.6753698668021129	0.0793353268414559	-0.11346469082960114	0.718934481794411	0.09320594188692001	-0.16883373646174543	0.9189531954817313	0.2522775039408508	1.3205563715018622	0.7194324460506616	0.2626647557791157	1.5471466178065987	0.7200867127913481	0.27811826546541196	1.4324170225231765	0.5884961554042585	0.3770919289230139	1.228125418041053	0.7505958952477757	0.37680570647654676	0.935177597807827	0.724162236169471	0.2926361673512101	0.7382585463951093	0.5993746045833169	0.21641965269305388	0.650841065155462	0.5574734801394677	0.22384693140804243	0.6337896395713039	0.5837558846613689	0.2417572420028732	0.6324117939374927	0.6121268283342479	0.09061000265842509	1.235236020780885	0.7217668359899052	0.10298614793606387	0.9830367638298466	0.6763006053758432	0.18421943572501437	0.7550771428319691	0.5511253454327123	0.24052038287869482	0.6657791377466022	0.5591180187868035	0.2334185381554229	0.6530268500294094	0.5507619014875812	0.21702279355802828	0.6481653706679824	0.5538689650324033	
80	1.3559322033898304	0.3132135280194469	0.7752716723001534	0.736609840021185	0.31279463266894114	0.312963523844958	0.8046208698624793	0.3137923383710006	-0.08138964719262792	0.8355524891860622	0.30436275193920925	-0.12244583988216237	0.7137702229108503	0.3693577983462743	-0.11113193697923313	0.7097843031112859	0.2754862340837001	-0.17065524415946545	0.9385476528989177	0.1391415224412315	0.784932974758602	0.7394557132665261	0.10479957541871722	0.33301013359746423	0.8208561472723278	0.10022314771739241	-0.08412079476084261	0.8565356640294653	0.13871294359446384	-0.09409241670672319	0.6763106243094156	0.07993022487167459	-0.11260252238270771	0.7178881333453908	0.0931940582498165	-0.168822106924119	0.9189321399388809	0.2523412863607246	1.3198964851877808	0.7192922658344781	0.2626561307981901	1.5472069151553374	0.7200952254351036	0.2781440611274841	1.4319131577828472	0.5886545856690171	0.3776854318508765	1.2280083460927134	0.7510706244522248	0.3767896519068531	0.935359723321958	0.7240099632329232	0.29264583114991843	0.7382485744307814	0.599380455221192	0.21635761375606893	0.6515656400034175	0.5575849406923266	0.22280192008873353	0.6352504217927181	0.581490818416267	0.24174577876279324	0.6325592543050873	0.6120951358594235	0.09182056255081705	1.235615037753692	0.7193724603868412	0.10297947939944713	0.9838833396425695	0.6760208725451122	0.1842213894999227	0.7550701604281764	0.5511529761107267	0.24010487212258022	0.6673653641106715	0.556458767935986	0.23390613058315018	0.6545962101012631	0.5482408420064473	0.21731038382325146	0.6480298415026916	0.5558965181002149	
81	1.3728813559322033	0.3132046192610516	0.7752741890746682	0.7365919906101251	0.31264078153688146	0.3127431531745174	0.8060378681527299	0.3139296459978228	-0.08144226528105192	0.8357329322250828	0.30385027001589415	-0.12049097298804276	0.7118958180798305	0.36953221830729	-0.11108809758588108	0.7097889916214984	0.27550299303117465	-0.17111551678546838	0.9387545551208893	0.13911876547811391	0.7849626122088169	0.7394678569191913	0.10479347264495198	0.33301443657061547	0.8208617837148408	0.10020384964122975	-0.0842272301970641	0.856585357776688	0.1395348557855263	-0.09473941070411254	0.6761436009789134	0.08076033461276227	-0.11145793505492883	0.7162956996106429	0.09318827479482993	-0.16883777559153917	0.9189241454062225	0.2523515705562618	1.319192615982336	0.7191328898366165	0.2626376020045159	1.547520938012879	0.720130139130819	0.27816868633394864	1.4312736354145914	0.5888317470033599	0.3784958052089405	1.2279250872900158	0.7515982989048222	0.37674037953302125	0.9358678792440172	0.7238034501055706	0.2926455634689016	0.7382318407383665	0.5993852729323512	0.21630110900982977	0.6521371290216872	0.557632511002168	0.22159526164340493	0.636776805518433	0.578499344225372	0.24177421997456178	0.6323288345874687	0.6120482970546968	0.09295321171756535	1.2359639008134655	0.7171467607644262	0.10297364978045065	0.9846831098083919	0.6757461425983428	0.18421522301693416	0.7550623737759249	0.5511740584361855	0.2396879800361329	0.6688778868898417	0.5539841325479364	0.23405681366165848	0.655642292514503	0.5454085149567278	0.21756698342429656	0.6476926336241298	0.5578657229948562	
